#!OML:ASF H:\Terrain\Patient Classification 1\Walking\steve\steve.ASF
:FULLY-SPECIFIED
:DEGREES
123
root 7.31056 16.0027 -13.56 5.12148 -3.18972 -2.56782
lowerback 0.064196 2.72737 5.12247
upperback -2.78084 3.77497 2.16606
thorax -2.72049 1.78971 -0.716859
lowerneck -8.87448 -0.418505 -1.76933
upperneck 17.0694 0.0540786 -1.88563
head 6.66369 -0.238243 -0.305545
rclavicle -5.90142e-015 -2.70347e-014
rhumerus -28.8503 -17.9593 -81.5072
rradius 25.0346
rwrist 1.92683
rhand -21.0323 -37.6718
rfingers 7.12502
rthumb 5.34318 -67.5844
lclavicle -5.90142e-015 -2.70347e-014
lhumerus -38.2145 7.58503 85.0468
lradius 18.7598
lwrist 3.9995
lhand -21.4313 -13.8938
lfingers 7.12502
lthumb 4.95788 16.0282
rfemur -15.9913 0.36325 28.6495
rtibia 34.3139
rfoot -20.206 12.1508
rtoes 2.67392
lfemur -31.5941 9.22874 -18.6693
ltibia 61.9126
lfoot -11.9278 3.18656
ltoes -8.36536
124
root 7.31649 16.0032 -13.3396 5.06922 -3.69596 -2.56113
lowerback 0.00232927 2.8934 5.18242
upperback -2.62463 3.98198 2.06633
thorax -2.50282 1.89721 -0.846945
lowerneck -9.25422 -0.359939 -1.65525
upperneck 17.247 0.135409 -1.91622
head 6.78739 -0.198563 -0.3289
rclavicle -9.28076e-015 7.95139e-015
rhumerus -27.2654 -15.3217 -83.0181
rradius 26.9336
rwrist -0.831797
rhand -21.2642 -38.8185
rfingers 7.12502
rthumb 5.11929 -68.7366
lclavicle -9.28076e-015 7.95139e-015
lhumerus -39.0308 10.4749 82.8474
lradius 17.0006
lwrist 0.141255
lhand -20.8076 -13.1888
lfingers 7.12502
lthumb 5.56015 16.7182
rfemur -14.8324 -0.310916 28.5325
rtibia 33.9034
rfoot -20.7016 13.225
rtoes 3.02942
lfemur -32.3493 9.48412 -18.8305
ltibia 59.9961
lfoot -12.3747 3.25004
ltoes -5.15122
125
root 7.32226 16.0088 -13.1241 5.12777 -4.16435 -2.69745
lowerback -0.0650335 3.0411 5.31442
upperback -2.49245 4.16829 2.05696
thorax -2.30915 1.99334 -0.923044
lowerneck -9.73401 -0.294886 -1.42137
upperneck 17.3847 0.238816 -2.12764
head 6.91666 -0.156203 -0.428335
rclavicle -1.19892e-014 2.38542e-015
rhumerus -25.5679 -13.3682 -83.9336
rradius 28.4199
rwrist -2.41362
rhand -20.7079 -39.5206
rfingers 7.12502
rthumb 5.65641 -69.4251
lclavicle -1.19892e-014 2.38542e-015
lhumerus -40.0798 14.0535 80.0624
lradius 15.1085
lwrist -4.4023
lhand -19.5491 -13.3968
lfingers 7.12502
lthumb 6.77506 16.4748
rfemur -13.7836 -0.857742 28.5459
rtibia 33.399
rfoot -20.6012 14.3141
rtoes 5.4797
lfemur -33.1761 9.58334 -18.8197
ltibia 57.8354
lfoot -12.8669 3.7256
ltoes -5.89308
126
root 7.32709 16.0031 -12.9174 5.27293 -4.48662 -2.89317
lowerback 0.00303728 3.1677 5.49086
upperback -2.6082 4.35139 2.10837
thorax -2.44959 2.07628 -0.977176
lowerneck -9.70458 -0.294858 -1.37926
upperneck 17.3481 0.263099 -2.30706
head 6.90023 -0.156527 -0.490816
rclavicle 1.15357e-014 1.59028e-014
rhumerus -24.2575 -11.6416 -84.3857
rradius 29.6302
rwrist -3.61811
rhand -19.0666 -39.3991
rfingers 7.12502
rthumb 7.24087 -69.2552
lclavicle 1.15357e-014 1.59028e-014
lhumerus -41.745 16.6023 77.5683
lradius 13.8548
lwrist -8.12283
lhand -18.4681 -12.8813
lfingers 7.12502
lthumb 7.81852 16.9541
rfemur -12.8271 -1.38542 28.6246
rtibia 32.7662
rfoot -20.1085 15.3561
rtoes 7.61825
lfemur -34.0283 9.51087 -18.7056
ltibia 55.4492
lfoot -13.863 3.91598
ltoes -7.76707
127
root 7.33015 16.0239 -12.705 5.42904 -4.84176 -3.0119
lowerback 0.0551908 3.34661 5.65983
upperback -2.83953 4.60767 2.07013
thorax -2.68945 2.19015 -1.1233
lowerneck -9.13499 -0.309865 -1.46417
upperneck 17.1168 0.234347 -2.28958
head 6.72541 -0.167513 -0.471333
rclavicle 6.51393e-014 2.14687e-014
rhumerus -23.3717 -9.88642 -84.816
rradius 31.1034
rwrist -5.3427
rhand -17.7555 -39.2659
rfingers 7.12502
rthumb 8.50626 -69.0746
lclavicle 6.51393e-014 2.14687e-014
lhumerus -43.5515 18.3062 75.2073
lradius 12.8527
lwrist -11.1459
lhand -18.0318 -11.9433
lfingers 7.12502
lthumb 8.23962 17.8761
rfemur -11.729 -1.80341 28.5403
rtibia 32.0658
rfoot -20.1122 16.1431
rtoes 7.14353
lfemur -34.7309 9.42306 -18.5904
ltibia 52.8027
lfoot -14.7484 3.77306
ltoes -8.26203
128
root 7.33476 16.0522 -12.4881 5.56172 -5.26997 -3.03144
lowerback 0.0277532 3.54898 5.78312
upperback -2.9277 4.87785 1.9161
thorax -2.72678 2.3175 -1.35285
lowerneck -9.03123 -0.324205 -1.33181
upperneck 17.1505 0.183647 -2.24392
head 6.7172 -0.179315 -0.482757
rclavicle 2.16924e-014 7.95139e-015
rhumerus -22.1782 -8.29568 -85.3988
rradius 32.5393
rwrist -7.60256
rhand -18.6845 -39.0314
rfingers 7.12502
rthumb 7.6097 -68.8745
lclavicle 2.16924e-014 7.95139e-015
lhumerus -45.1744 20.0495 72.5428
lradius 11.8886
lwrist -14.1472
lhand -17.9588 -11.7779
lfingers 7.12502
lthumb 8.3101 18.0387
rfemur -10.5045 -2.13887 28.2999
rtibia 31.3806
rfoot -20.1343 16.9319
rtoes 6.39359
lfemur -35.254 9.30792 -18.5714
ltibia 49.9222
lfoot -15.2345 4.5087
ltoes -11.2068
129
root 7.34213 16.0426 -12.2772 5.73654 -5.66742 -3.18228
lowerback 0.0704608 3.68712 5.94584
upperback -3.0018 5.07045 1.86188
thorax -2.79779 2.40547 -1.50524
lowerneck -9.11691 -0.361587 -1.26557
upperneck 17.2444 0.11903 -2.20702
head 6.76181 -0.204828 -0.487947
rclavicle -6.58847e-014 6.36111e-015
rhumerus -20.7448 -6.7401 -85.7877
rradius 33.5592
rwrist -9.32384
rhand -19.8339 -39.1663
rfingers 7.12502
rthumb 6.50019 -69.0466
lclavicle -6.58847e-014 6.36111e-015
lhumerus -47.0556 21.7423 69.7793
lradius 11.2972
lwrist -17.1801
lhand -18.2234 -11.9713
lfingers 7.12502
lthumb 8.05469 17.8552
rfemur -9.48937 -2.499 28.2571
rtibia 30.6891
rfoot -19.451 17.9275
rtoes 8.92758
lfemur -35.7606 9.40733 -18.4945
ltibia 46.8723
lfoot -15.2469 5.70664
ltoes -16.7202
130
root 7.34881 16.0273 -12.0654 5.82581 -6.1507 -3.27671
lowerback 0.157482 3.80217 5.96843
upperback -2.98011 5.23014 1.86968
thorax -2.81245 2.48439 -1.51671
lowerneck -8.96861 -0.394485 -1.49474
upperneck 16.991 0.0858843 -2.12091
head 6.65478 -0.224541 -0.423753
rclavicle 5.69642e-014 9.54166e-015
rhumerus -19.1438 -5.25282 -85.9492
rradius 34.4562
rwrist -10.0368
rhand -19.4378 -41.0032
rfingers 7.12502
rthumb 6.88251 -70.8713
lclavicle 5.69642e-014 9.54166e-015
lhumerus -49.3406 24.38 66.0068
lradius 10.6531
lwrist -21.3433
lhand -18.1499 -11.6259
lfingers 7.12502
lthumb 8.12565 18.1978
rfemur -8.47518 -2.62692 28.1408
rtibia 29.9352
rfoot -18.3987 18.7671
rtoes 12.1564
lfemur -36.0268 9.53912 -18.382
ltibia 43.6586
lfoot -15.2161 6.15365
ltoes -18.8907
131
root 7.35602 16.0219 -11.8478 5.73596 -6.67255 -3.03258
lowerback 0.244644 3.93438 5.74668
upperback -2.81162 5.39631 1.69893
thorax -2.67747 2.57712 -1.57116
lowerneck -8.88646 -0.430572 -1.45776
upperneck 16.6215 0.0346872 -2.20798
head 6.52207 -0.249323 -0.460334
rclavicle -8.43095e-014 -1.11319e-014
rhumerus -17.3638 -3.9389 -86.1636
rradius 35.5655
rwrist -10.3701
rhand -17.7969 -43.9782
rfingers 7.12502
rthumb 8.46637 -73.7885
lclavicle -8.43095e-014 -1.11319e-014
lhumerus -51.4085 26.3579 62.6007
lradius 10.3057
lwrist -24.3868
lhand -17.3014 -10.574
lfingers 7.12502
lthumb 8.9445 19.2164
rfemur -7.17267 -3.27471 27.5328
rtibia 29.0315
rfoot -17.2447 20.0379
rtoes 13.8304
lfemur -35.9233 9.09212 -18.3831
ltibia 40.3698
lfoot -15.7056 6.3853
ltoes -18.7841
